{"title":".Zero.2014.720p.HDTV.X264","uid":10174482,"size":2604041745,"categoryP":"video","categoryS":"hd___movies","magnet":"?xt=urn:btih:986b7e9ed4d380ca93207820c0e1254b0e959ac0&amp;dn=.Zero.2014.720p.HDTV.X264&amp;tr=udp%3A%2F%2Ftracker.openbittorrent.com%3A80&amp;tr=udp%3A%2F%2Fopen.demonii.com%3A1337&amp;tr=udp%3A%2F%2Ftracker.coppersurfer.tk%3A6969&amp;tr=udp%3A%2F%2Fexodus.desync.com%3A6969","seeders":0,"leechers":0,"uploader":"desspratt","files":-1,"time":1400449631,"description":" &lt;a href=&quot;http://imagizer.imageshack.us/v2/1024x768q90/835/3q0o.jpg&quot; rel=&quot;nofollow&quot; target=&quot;_NEW&quot;&gt;http://imagizer.imageshack.us/v2/1024x768q90/835/3q0o.jpg&lt;/a&gt;\n\n\n\n\n[center][URL=https://imageshack.com/i/n6x0cnp][IMG]http://imagizer.imageshack.us/v2/1024x768q90/834/x0cn.png[/IMG][/URL][/center]\n\n\nRETURN TO ZERO is based on the true story of a successful couple preparing for the arrival of their first child. Just weeks before their due date they discover that their son has died in the womb and will be stillborn. Lives and relationship forever altered by the loss, they try to cope through denial, escape and alcohol, but nothing can save their marriage. And that's when they discover that they're again pregnant (from a last ditch 'save the marriage' getaway to Las Vegas), and must come together to face a turbulent and terrifying pregnancy.\n\n\nIMDB Link: http://www.imdb.com/title/tt2538130/\n\n\n\n\n\n[URL=https://imageshack.com/i/nhfafyj][IMG]http://imagizer.imageshack.us/v2/1024x768q90/845/fafy.jpg[/IMG][/URL]\n[URL=https://imageshack.com/i/nff1m6j][IMG]http://imagizer.imageshack.us/v2/1024x768q90/843/f1m6.jpg[/IMG][/URL]\n[URL=https://imageshack.com/i/nd0z27j][IMG]http://imagizer.imageshack.us/v2/1024x768q90/841/0z27.jpg[/IMG][/URL]\n[URL=https://imageshack.com/i/ngb0myj][IMG]http://imagizer.imageshack.us/v2/1024x768q90/844/b0my.jpg[/IMG][/URL]\n______________________________________________________________________________________________________________________________________________________________________________________________________\n\nFormat                                   : Matroska\nFormat version                           : Version 4 / Version 2\nFile size                                : 2.43 GiB\nDuration                                 : 1h 43mn\nOverall bit rate                         : 3 342 Kbps\nEncoded date                             : UTC 2014-05-18 06:55:33\nWriting application                      : mkvmerge v6.0.0 ('Coming Up For Air') built on Jan 20 2013 09:52:00\nWriting library                          : libebml v1.3.0 + libmatroska v1.4.0\n\nVideo\nID                                       : 1\nFormat                                   : AVC\nFormat/Info                              : Advanced Video Codec\nFormat profile                           : &lt;a class=&quot;__cf_email__&quot; href=&quot;/cdn-cgi/l/email-protection&quot; data-cfemail=&quot;d69ebfb1be969ae2f8e7&quot;&gt;[email&amp;#160;protected]&lt;/a&gt;&lt;script data-cfhash='f9e31' type=&quot;text/javascript&quot;&gt;\n/* &lt;![CDATA[ */!function(){try{var t=&quot;currentScript&quot;in document?document.currentScript:function(){for(var t=document.getElementsByTagName(&quot;script&quot;),e=t.length;e--;)if(t[e].getAttribute(&quot;data-cfhash&quot;))return t[e]}();if(t&amp;&amp;t.previousSibling){var e,r,n,i,c=t.previousSibling,a=c.getAttribute(&quot;data-cfemail&quot;);if(a){for(e=&quot;&quot;,r=parseInt(a.substr(0,2),16),n=2;a.length-n;n+=2)i=parseInt(a.substr(n,2),16)^r,e+=String.fromCharCode(i);e=document.createTextNode(e),c.parentNode.replaceChild(e,c)}t.parentNode.removeChild(t);}}catch(u){}}()/* ]]&gt; */&lt;/script&gt;\nFormat settings, CABAC                   : Yes\nFormat settings, ReFrames                : 5 frames\nCodec ID                                 : V_MPEG4/ISO/AVC\nDuration                                 : 1h 43mn\nBit rate                                 : 2 891 Kbps\nWidth                                    : 1 280 pixels\nHeight                                   : 720 pixels\nDisplay aspect ratio                     : 16:9\nFrame rate mode                          : Constant\nFrame rate                               : 23.976 fps\nColor space                              : YUV\nChroma subsampling                       : 4:2:0\nBit depth                                : 8 bits\nScan type                                : Progressive\nBits/(Pixel*Frame)                       : 0.131\nStream size                              : 2.10 GiB (87%)\nWriting library                          : x264 core 142 r2431 ac76440\nEncoding settings                        : cabac=1 / ref=5 / deblock=1:0:0 / analyse=0x3:0x113 / me=umh / subme=8 / psy=1 / psy_rd=1.00:0.00 / mixed_ref=1 / me_range=16 / chroma_me=1 / trellis=1 / 8x8dct=1 / cqm=0 / deadzone=21,11 / fast_pskip=1 / chroma_qp_offset=-2 / threads=12 / lookahead_threads=2 / sliced_threads=0 / nr=0 / decimate=1 / interlaced=0 / bluray_compat=0 / constrained_intra=0 / bframes=3 / b_pyramid=2 / b_adapt=2 / b_bias=0 / direct=3 / weightb=1 / open_gop=0 / weightp=2 / keyint=250 / keyint_min=25 / scenecut=40 / intra_refresh=0 / rc_lookahead=50 / rc=crf / mbtree=1 / crf=18.0 / qcomp=0.60 / qpmin=0 / qpmax=69 / qpstep=4 / ip_ratio=1.40 / aq=1:1.00\nLanguage                                 : English\nDefault                                  : Yes\nForced                                   : No\n\nAudio\nID                                       : 2\nFormat                                   : AC-3\nFormat/Info                              : Audio Coding 3\nMode extension                           : CM (complete main)\nFormat settings, Endianness              : Big\nCodec ID                                 : A_AC3\nDuration                                 : 1h 43mn\nBit rate mode                            : Constant\nBit rate                                 : 384 Kbps\nChannel(s)                               : 6 channels\nChannel positions                        : Front: L C R, Side: L R, LFE\nSampling rate                            : 48.0 KHz\nBit depth                                : 16 bits\nCompression mode                         : Lossy\nStream size                              : 285 MiB (11%)\nLanguage                                 : English\nDefault                                  : Yes\nForced                                   : No\n\nText\nID                                       : 3\nFormat                                   : UTF-8\nCodec ID                                 : S_TEXT/UTF8\nCodec ID/Info                            : UTF-8 Plain Text\nLanguage                                 : English\nDefault                                  : No\nForced                                   : No","torrent":{"xt":"urn:btih:986b7e9ed4d380ca93207820c0e1254b0e959ac0","amp;dn":".Zero.2014.720p.HDTV.X264","amp;tr":["udp%3A%2F%2Ftracker.openbittorrent.com%3A80","udp%3A%2F%2Fopen.demonii.com%3A1337","udp%3A%2F%2Ftracker.coppersurfer.tk%3A6969","udp%3A%2F%2Fexodus.desync.com%3A6969"],"infoHash":"986b7e9ed4d380ca93207820c0e1254b0e959ac0","infoHashBuffer":{"type":"Buffer","data":[152,107,126,158,212,211,128,202,147,32,120,32,192,225,37,75,14,149,154,192]},"announce":[],"urlList":[]}}